<svg width="310" height="500" viewBox="0 0 310 500" fill="none" xmlns="http://www.w3.org/2000/svg">
<g filter="url(#filter0_i_15_150)">
<rect width="310" height="500" rx="20" fill="#F5F0E9"/>
</g>
<path d="M83.46 59.04C83.46 54.12 81.24 51.7 77.88 51.7C74.5 51.7 72.32 54.18 72.32 59.04C72.32 63.72 74.52 66.3 77.88 66.3C81.26 66.3 83.46 63.72 83.46 59.04ZM75.46 59.04C75.46 55.5 76.28 54.04 77.88 54.04C79.46 54.04 80.32 55.56 80.32 59.04C80.32 62.52 79.46 63.96 77.9 63.96C76.34 63.96 75.46 62.5 75.46 59.04ZM89.8973 66C89.9973 66 90.0773 65.92 90.0773 65.82L90.0173 59.18L90.0773 52.18C90.0773 52.08 89.9973 52 89.8973 52H87.3773C87.2773 52 87.1573 52.06 87.1173 52.16C86.5173 53.28 85.5373 54.1 84.1973 54.58C84.0773 54.62 84.0173 54.72 84.0173 54.82V56.78C84.0173 56.88 84.0973 56.94 84.1973 56.9C85.2973 56.56 86.2573 56.06 86.9973 55.36L87.0173 60.22L86.9773 65.82C86.9773 65.92 87.0573 66 87.1573 66H89.8973ZM107.253 61.76C107.253 56.22 98.273 58.64 98.273 55.66C98.273 54.5 99.313 54 100.753 54C102.453 54 103.473 54.7 103.633 55.96C103.653 56.06 103.733 56.14 103.833 56.14H106.673C106.773 56.14 106.833 56.06 106.833 55.96C106.413 52.96 104.153 51.7 100.873 51.7C97.293 51.7 95.253 53.34 95.253 55.96C95.253 61.52 104.193 59.02 104.193 62.18C104.193 63.5 103.193 64.04 101.373 64.04C99.073 64.04 98.373 63.02 98.173 61.46C98.153 61.36 98.073 61.28 97.973 61.28H95.153C95.053 61.28 94.973 61.36 94.973 61.46C95.113 64.78 97.633 66.32 101.313 66.32C104.973 66.32 107.253 64.72 107.253 61.76ZM115.21 62.52C115.11 62.52 115.01 62.6 114.99 62.7C114.71 63.8 113.99 64.26 112.99 64.26C111.55 64.26 110.79 63.4 110.67 61.46H118.03C118.13 61.46 118.21 61.38 118.21 61.28C118.15 57.68 116.27 55.44 112.89 55.44C109.61 55.44 107.65 57.6 107.65 60.88C107.65 64 109.51 66.26 112.95 66.26C115.83 66.26 117.63 64.58 117.89 62.7C117.91 62.6 117.83 62.52 117.73 62.52H115.21ZM114.97 59.56H110.75C110.99 58.14 111.71 57.42 112.91 57.42C114.23 57.42 114.85 58.46 114.97 59.56ZM121.806 60.78C121.826 58.64 122.606 57.54 124.066 57.54C125.526 57.54 126.306 58.7 126.306 60.98C126.306 63.08 125.526 64.18 124.006 64.18C122.566 64.18 121.786 62.96 121.806 60.78ZM129.366 60.82C129.366 57.82 127.826 55.5 124.906 55.5C123.606 55.5 122.586 56.02 121.866 56.9L121.926 55.88C121.926 55.78 121.846 55.7 121.746 55.7H119.066C118.966 55.7 118.886 55.78 118.886 55.88L118.946 61.82L118.886 69.22C118.886 69.32 118.966 69.4 119.066 69.4H121.766C121.866 69.4 121.946 69.32 121.946 69.22L121.906 64.94C122.606 65.76 123.606 66.2 124.846 66.2C127.646 66.2 129.366 63.8 129.366 60.82ZM136.107 64.02C136.107 63.94 136.027 63.86 135.927 63.88C135.627 63.98 135.247 64.06 134.767 64.06C134.107 64.06 133.667 63.78 133.667 62.9L133.647 57.82H135.947C136.047 57.82 136.127 57.74 136.127 57.64V55.88C136.127 55.78 136.047 55.7 135.947 55.7H133.667L133.687 53.3C133.687 53.2 133.607 53.12 133.507 53.12H130.847C130.747 53.12 130.667 53.2 130.667 53.3L130.687 55.7H129.527C129.427 55.7 129.347 55.78 129.347 55.88V57.64C129.347 57.74 129.427 57.82 129.527 57.82H130.687L130.667 62.98C130.667 65.32 132.327 66.2 134.067 66.2C134.707 66.2 135.367 66.06 135.947 65.86C136.027 65.82 136.107 65.72 136.107 65.62V64.02ZM143.784 62.52C143.684 62.52 143.584 62.6 143.564 62.7C143.284 63.8 142.564 64.26 141.564 64.26C140.124 64.26 139.364 63.4 139.244 61.46H146.604C146.704 61.46 146.784 61.38 146.784 61.28C146.724 57.68 144.844 55.44 141.464 55.44C138.184 55.44 136.224 57.6 136.224 60.88C136.224 64 138.084 66.26 141.524 66.26C144.404 66.26 146.204 64.58 146.464 62.7C146.484 62.6 146.404 62.52 146.304 62.52H143.784ZM143.544 59.56H139.324C139.564 58.14 140.284 57.42 141.484 57.42C142.804 57.42 143.424 58.46 143.544 59.56ZM150.5 60.86C150.5 58.76 151.48 57.66 152.32 57.66C153.16 57.66 153.64 58.26 153.64 59.5V62.3L153.58 65.82C153.58 65.92 153.66 66 153.76 66H156.46C156.56 66 156.64 65.92 156.64 65.82L156.58 62.3V60.86C156.58 58.76 157.58 57.66 158.4 57.66C159.22 57.66 159.72 58.26 159.72 59.5V62.3L159.66 65.82C159.66 65.92 159.74 66 159.84 66H162.54C162.64 66 162.72 65.92 162.72 65.82L162.68 62.3V59.46C162.68 56.72 161.48 55.46 159.4 55.46C158.18 55.46 157.14 55.84 156.26 57.4C155.78 56.08 154.76 55.46 153.32 55.46C152 55.46 151.08 56 150.36 57L150.42 55.88C150.42 55.78 150.34 55.7 150.24 55.7H147.68C147.58 55.7 147.5 55.78 147.5 55.88L147.52 62.3L147.46 65.82C147.46 65.92 147.54 66 147.64 66H150.38C150.48 66 150.56 65.92 150.56 65.82L150.5 62.3V60.86ZM174.014 60.82C174.014 57.82 172.474 55.5 169.554 55.5C168.274 55.5 167.254 56 166.534 56.88L166.554 52.18C166.554 52.08 166.474 52 166.374 52H163.714C163.614 52 163.534 52.08 163.534 52.18L163.594 59L163.534 65.82C163.534 65.92 163.614 66 163.714 66H166.394C166.494 66 166.574 65.92 166.574 65.82L166.514 64.9C167.214 65.74 168.214 66.2 169.494 66.2C172.294 66.2 174.014 63.8 174.014 60.82ZM166.454 60.74C166.474 58.62 167.254 57.54 168.714 57.54C170.154 57.52 170.954 58.68 170.954 60.94C170.954 63.02 170.174 64.2 168.654 64.16C167.214 64.14 166.434 62.94 166.454 60.74ZM182.046 62.52C181.946 62.52 181.846 62.6 181.826 62.7C181.546 63.8 180.826 64.26 179.826 64.26C178.386 64.26 177.626 63.4 177.506 61.46H184.866C184.966 61.46 185.046 61.38 185.046 61.28C184.986 57.68 183.106 55.44 179.726 55.44C176.446 55.44 174.486 57.6 174.486 60.88C174.486 64 176.346 66.26 179.786 66.26C182.666 66.26 184.466 64.58 184.726 62.7C184.746 62.6 184.666 62.52 184.566 62.52H182.046ZM181.806 59.56H177.586C177.826 58.14 178.546 57.42 179.746 57.42C181.066 57.42 181.686 58.46 181.806 59.56ZM188.542 66C188.642 66 188.722 65.92 188.722 65.82V61.42C188.702 59.06 190.282 57.88 192.402 57.88C192.522 57.88 192.662 57.88 192.782 57.9C192.882 57.9 192.962 57.84 192.962 57.74V55.88C192.962 55.78 192.882 55.68 192.782 55.66C192.642 55.64 192.482 55.62 192.322 55.62C190.822 55.62 189.442 56.22 188.642 57.44L188.722 55.88C188.722 55.78 188.642 55.7 188.542 55.7H185.902C185.802 55.7 185.722 55.78 185.722 55.88L185.802 60.84L185.722 65.82C185.722 65.92 185.802 66 185.902 66H188.542ZM192.463 68.34C192.563 68.34 192.683 68.28 192.743 68.2L194.363 66.04C194.423 65.96 194.463 65.82 194.463 65.72V63.32C194.463 63.22 194.383 63.14 194.283 63.14H191.743C191.643 63.14 191.563 63.22 191.563 63.32V65.92L190.943 68.16C190.923 68.26 190.983 68.34 191.083 68.34H192.463ZM208.268 66C208.368 66 208.448 65.92 208.448 65.82V63.92C208.448 63.82 208.368 63.74 208.268 63.74H201.548V63.5C201.548 60.82 208.448 61.12 208.448 55.94C208.368 53.32 206.788 51.74 203.668 51.74C200.428 51.76 198.788 53.52 198.788 56.56C198.788 56.66 198.868 56.74 198.968 56.74H201.388C201.488 56.74 201.568 56.66 201.568 56.56C201.628 54.86 202.408 53.94 203.668 53.92C204.968 53.9 205.688 54.7 205.628 56.04C205.628 58.98 198.708 58.46 198.708 64.04V65.82C198.708 65.92 198.788 66 198.888 66H208.268ZM220.335 59.04C220.335 54.12 218.115 51.7 214.755 51.7C211.375 51.7 209.195 54.18 209.195 59.04C209.195 63.72 211.395 66.3 214.755 66.3C218.135 66.3 220.335 63.72 220.335 59.04ZM212.335 59.04C212.335 55.5 213.155 54.04 214.755 54.04C216.335 54.04 217.195 55.56 217.195 59.04C217.195 62.52 216.335 63.96 214.775 63.96C213.215 63.96 212.335 62.5 212.335 59.04ZM230.592 66C230.692 66 230.772 65.92 230.772 65.82V63.92C230.772 63.82 230.692 63.74 230.592 63.74H223.872V63.5C223.872 60.82 230.772 61.12 230.772 55.94C230.692 53.32 229.112 51.74 225.992 51.74C222.752 51.76 221.112 53.52 221.112 56.56C221.112 56.66 221.192 56.74 221.292 56.74H223.712C223.812 56.74 223.892 56.66 223.892 56.56C223.952 54.86 224.732 53.94 225.992 53.92C227.292 53.9 228.012 54.7 227.952 56.04C227.952 58.98 221.032 58.46 221.032 64.04V65.82C221.032 65.92 221.112 66 221.212 66H230.592ZM241.139 66C241.239 66 241.319 65.92 241.319 65.82V63.92C241.319 63.82 241.239 63.74 241.139 63.74H234.419V63.5C234.419 60.82 241.319 61.12 241.319 55.94C241.239 53.32 239.659 51.74 236.539 51.74C233.299 51.76 231.659 53.52 231.659 56.56C231.659 56.66 231.739 56.74 231.839 56.74H234.259C234.359 56.74 234.439 56.66 234.439 56.56C234.499 54.86 235.279 53.94 236.539 53.92C237.839 53.9 238.559 54.7 238.499 56.04C238.499 58.98 231.579 58.46 231.579 64.04V65.82C231.579 65.92 231.659 66 231.759 66H241.139Z" fill="#BC7F6A"/>
<path d="M51.128 61.024C51.128 60.944 51.08 60.864 51 60.816L45.448 58.48L51 56.144C51.08 56.112 51.128 56.032 51.128 55.952V54.384C51.128 54.32 51.064 54.272 51 54.304L43.736 57.536C43.656 57.568 43.608 57.664 43.608 57.744V59.232C43.608 59.312 43.656 59.408 43.736 59.44L51 62.672C51.064 62.704 51.128 62.656 51.128 62.592V61.024Z" fill="#BC7F6A"/>
<path d="M270 59.44C270.08 59.408 270.128 59.312 270.128 59.232V57.744C270.128 57.664 270.08 57.568 270 57.536L262.736 54.304C262.672 54.272 262.608 54.32 262.608 54.384V55.952C262.608 56.032 262.656 56.112 262.736 56.144L268.288 58.48L262.736 60.816C262.656 60.864 262.608 60.944 262.608 61.024V62.592C262.608 62.656 262.672 62.704 262.736 62.672L270 59.44Z" fill="#BC7F6A"/>
<line x1="95" y1="85.75" x2="215" y2="85.75" stroke="#BC7F6A" stroke-width="0.5"/>
<rect x="52.5" y="159.5" width="12" height="12" rx="3.5" stroke="#BC7F6A"/>
<path d="M89.512 171L86.04 160.328H84.504L81.048 171H82.168L83.112 167.88H87.064L88.136 171H89.512ZM86.776 166.872H83.496L85.144 161.752L86.776 166.872ZM90.0663 168.952C90.2583 169.64 90.4663 169.976 90.8823 170.328C91.5543 170.92 92.4503 171.208 93.5703 171.208C95.5223 171.208 96.8183 170.232 96.8183 168.792C96.8183 167.512 96.0343 166.744 94.4183 166.456L92.8663 166.184C92.0343 166.024 91.6343 165.672 91.6343 165.08C91.6343 164.376 92.3063 163.912 93.3303 163.912C94.3383 163.912 94.9783 164.296 95.3463 165.144L96.4663 164.904C96.0823 163.592 95.0103 162.904 93.3623 162.904C91.5703 162.904 90.3863 163.832 90.3863 165.224C90.3863 166.344 91.1703 167.144 92.5143 167.4L94.1783 167.704C95.0743 167.88 95.5383 168.28 95.5383 168.92C95.5383 169.688 94.7863 170.2 93.6823 170.2C92.9463 170.2 92.1943 169.976 91.7463 169.608C91.4903 169.4 91.3623 169.16 91.2343 168.712L90.0663 168.952ZM97.7381 168.952C97.9301 169.64 98.1381 169.976 98.5541 170.328C99.2261 170.92 100.122 171.208 101.242 171.208C103.194 171.208 104.49 170.232 104.49 168.792C104.49 167.512 103.706 166.744 102.09 166.456L100.538 166.184C99.7061 166.024 99.3061 165.672 99.3061 165.08C99.3061 164.376 99.9781 163.912 101.002 163.912C102.01 163.912 102.65 164.296 103.018 165.144L104.138 164.904C103.754 163.592 102.682 162.904 101.034 162.904C99.2421 162.904 98.0581 163.832 98.0581 165.224C98.0581 166.344 98.8421 167.144 100.186 167.4L101.85 167.704C102.746 167.88 103.21 168.28 103.21 168.92C103.21 169.688 102.458 170.2 101.354 170.2C100.618 170.2 99.8661 169.976 99.4181 169.608C99.1621 169.4 99.0341 169.16 98.9061 168.712L97.7381 168.952ZM107.448 163.112H106.216V171H107.448V163.112ZM107.496 160.328H106.168V161.688H107.496V160.328ZM116.227 161.88C116.067 161.864 116.003 161.864 115.907 161.864C115.171 161.864 114.851 161.944 114.579 162.216C114.307 162.472 114.163 162.776 114.083 163.24C113.571 162.984 113.059 162.872 112.467 162.872C110.739 162.872 109.459 164.024 109.459 165.56C109.459 166.424 109.747 167.016 110.483 167.656C109.683 168.04 109.395 168.408 109.395 169.048C109.395 169.592 109.587 169.912 110.163 170.328C109.331 170.648 108.963 171.128 108.963 171.896C108.963 173.256 110.211 173.976 112.562 173.976C115.187 173.976 116.531 173.208 116.531 171.72C116.531 171.064 116.227 170.504 115.667 170.152C115.171 169.816 114.643 169.736 113.011 169.688C111.555 169.64 111.235 169.608 110.963 169.48C110.691 169.352 110.562 169.16 110.562 168.904C110.562 168.52 110.979 168.152 111.395 168.152C111.459 168.152 111.651 168.184 111.907 168.232C112.067 168.264 112.243 168.28 112.451 168.28C114.211 168.28 115.475 167.192 115.475 165.656C115.475 164.968 115.219 164.328 114.723 163.752C114.835 163.048 115.171 162.84 116.227 162.856V161.88ZM112.499 163.848C113.507 163.848 114.243 164.616 114.243 165.64C114.243 166.632 113.507 167.336 112.483 167.336C111.427 167.336 110.723 166.648 110.723 165.608C110.723 164.568 111.459 163.848 112.499 163.848ZM111.011 170.68C111.379 170.728 112.115 170.776 112.915 170.792C114.291 170.824 114.435 170.84 114.819 171.016C115.187 171.176 115.363 171.416 115.363 171.768C115.363 172.216 115.075 172.568 114.531 172.744C113.987 172.92 113.299 173.032 112.659 173.032C111.731 173.032 110.867 172.808 110.435 172.44C110.259 172.296 110.147 172.024 110.147 171.768C110.147 171.272 110.355 171 111.011 170.68ZM123.878 171V166.44C123.878 165.272 123.798 164.68 123.59 164.28C123.142 163.416 122.31 162.904 121.318 162.904C120.23 162.904 119.606 163.32 118.79 164.568V163.112H117.654V171H118.886V166.664C118.886 165.112 119.814 163.96 121.094 163.96C122.15 163.96 122.726 164.648 122.726 165.928V171H123.878ZM136.902 171V166.104C136.902 164.968 136.822 164.488 136.534 164.024C136.118 163.336 135.35 162.904 134.518 162.904C133.43 162.904 132.55 163.56 132.022 164.792C131.718 163.592 130.918 162.904 129.814 162.904C128.774 162.904 127.942 163.496 127.382 164.632V163.112H126.326V171H127.494V166.28C127.494 164.952 128.342 163.912 129.43 163.912C129.878 163.912 130.31 164.12 130.614 164.488C130.87 164.808 130.982 165.192 130.982 165.816V171H132.166V166.552C132.166 165.672 132.326 165.16 132.774 164.648C133.174 164.216 133.686 163.96 134.182 163.96C134.678 163.96 135.19 164.232 135.446 164.664C135.654 165.016 135.702 165.24 135.702 166.104V171H136.902ZM144.557 168.648C144.381 169.064 144.253 169.288 144.077 169.48C143.677 169.944 143.069 170.2 142.429 170.2C141.581 170.2 140.765 169.72 140.413 169C140.173 168.504 140.093 168.088 140.093 167.16H145.837C145.821 166.072 145.693 165.416 145.373 164.728C144.813 163.576 143.725 162.904 142.397 162.904C140.237 162.904 138.733 164.616 138.733 167.096C138.733 169.56 140.189 171.208 142.349 171.208C143.949 171.208 145.181 170.344 145.693 168.888L144.557 168.648ZM140.157 166.248C140.237 165.496 140.365 165.112 140.717 164.664C141.149 164.136 141.725 163.848 142.413 163.848C143.117 163.848 143.645 164.12 144.045 164.68C144.365 165.144 144.477 165.512 144.493 166.248H140.157ZM153.894 171V166.44C153.894 165.272 153.814 164.68 153.606 164.28C153.158 163.416 152.326 162.904 151.334 162.904C150.246 162.904 149.622 163.32 148.806 164.568V163.112H147.67V171H148.902V166.664C148.902 165.112 149.83 163.96 151.11 163.96C152.166 163.96 152.742 164.648 152.742 165.928V171H153.894ZM159.909 170.152C159.477 170.232 159.253 170.248 158.965 170.248C158.117 170.248 157.685 169.832 157.685 169.016V164.072H159.461V163.112H157.685V161.032L156.533 161.128L156.485 163.112H155.093V164.072H156.485V168.824C156.485 170.408 157.253 171.224 158.741 171.224C159.109 171.224 159.365 171.208 159.909 171.128V170.152ZM172.431 169.896H166.543C167.615 169.144 168.447 168.52 169.359 167.768C171.663 165.896 172.399 164.824 172.399 163.336C172.399 161.496 170.815 160.12 168.687 160.12C167.519 160.12 166.495 160.536 165.807 161.304C165.327 161.816 165.103 162.28 164.863 163.24L166.111 163.624C166.175 162.968 166.303 162.616 166.623 162.2C167.103 161.56 167.855 161.176 168.671 161.176C170.031 161.176 171.071 162.12 171.071 163.352C171.071 164.568 170.463 165.416 168.383 167.16C167.199 168.152 167.199 168.152 164.863 169.896V171H172.431V169.896Z" fill="black"/>
<rect x="52.5" y="120.5" width="12" height="12" rx="3.5" fill="#BC7F6A" stroke="#BC7F6A"/>
<path d="M89.512 132L86.04 121.328H84.504L81.048 132H82.168L83.112 128.88H87.064L88.136 132H89.512ZM86.776 127.872H83.496L85.144 122.752L86.776 127.872ZM90.0663 129.952C90.2583 130.64 90.4663 130.976 90.8823 131.328C91.5543 131.92 92.4503 132.208 93.5703 132.208C95.5223 132.208 96.8183 131.232 96.8183 129.792C96.8183 128.512 96.0343 127.744 94.4183 127.456L92.8663 127.184C92.0343 127.024 91.6343 126.672 91.6343 126.08C91.6343 125.376 92.3063 124.912 93.3303 124.912C94.3383 124.912 94.9783 125.296 95.3463 126.144L96.4663 125.904C96.0823 124.592 95.0103 123.904 93.3623 123.904C91.5703 123.904 90.3863 124.832 90.3863 126.224C90.3863 127.344 91.1703 128.144 92.5143 128.4L94.1783 128.704C95.0743 128.88 95.5383 129.28 95.5383 129.92C95.5383 130.688 94.7863 131.2 93.6823 131.2C92.9463 131.2 92.1943 130.976 91.7463 130.608C91.4903 130.4 91.3623 130.16 91.2343 129.712L90.0663 129.952ZM97.7381 129.952C97.9301 130.64 98.1381 130.976 98.5541 131.328C99.2261 131.92 100.122 132.208 101.242 132.208C103.194 132.208 104.49 131.232 104.49 129.792C104.49 128.512 103.706 127.744 102.09 127.456L100.538 127.184C99.7061 127.024 99.3061 126.672 99.3061 126.08C99.3061 125.376 99.9781 124.912 101.002 124.912C102.01 124.912 102.65 125.296 103.018 126.144L104.138 125.904C103.754 124.592 102.682 123.904 101.034 123.904C99.2421 123.904 98.0581 124.832 98.0581 126.224C98.0581 127.344 98.8421 128.144 100.186 128.4L101.85 128.704C102.746 128.88 103.21 129.28 103.21 129.92C103.21 130.688 102.458 131.2 101.354 131.2C100.618 131.2 99.8661 130.976 99.4181 130.608C99.1621 130.4 99.0341 130.16 98.9061 129.712L97.7381 129.952ZM107.448 124.112H106.216V132H107.448V124.112ZM107.496 121.328H106.168V122.688H107.496V121.328ZM116.227 122.88C116.067 122.864 116.003 122.864 115.907 122.864C115.171 122.864 114.851 122.944 114.579 123.216C114.307 123.472 114.163 123.776 114.083 124.24C113.571 123.984 113.059 123.872 112.467 123.872C110.739 123.872 109.459 125.024 109.459 126.56C109.459 127.424 109.747 128.016 110.483 128.656C109.683 129.04 109.395 129.408 109.395 130.048C109.395 130.592 109.587 130.912 110.163 131.328C109.331 131.648 108.963 132.128 108.963 132.896C108.963 134.256 110.211 134.976 112.562 134.976C115.187 134.976 116.531 134.208 116.531 132.72C116.531 132.064 116.227 131.504 115.667 131.152C115.171 130.816 114.643 130.736 113.011 130.688C111.555 130.64 111.235 130.608 110.963 130.48C110.691 130.352 110.562 130.16 110.562 129.904C110.562 129.52 110.979 129.152 111.395 129.152C111.459 129.152 111.651 129.184 111.907 129.232C112.067 129.264 112.243 129.28 112.451 129.28C114.211 129.28 115.475 128.192 115.475 126.656C115.475 125.968 115.219 125.328 114.723 124.752C114.835 124.048 115.171 123.84 116.227 123.856V122.88ZM112.499 124.848C113.507 124.848 114.243 125.616 114.243 126.64C114.243 127.632 113.507 128.336 112.483 128.336C111.427 128.336 110.723 127.648 110.723 126.608C110.723 125.568 111.459 124.848 112.499 124.848ZM111.011 131.68C111.379 131.728 112.115 131.776 112.915 131.792C114.291 131.824 114.435 131.84 114.819 132.016C115.187 132.176 115.363 132.416 115.363 132.768C115.363 133.216 115.075 133.568 114.531 133.744C113.987 133.92 113.299 134.032 112.659 134.032C111.731 134.032 110.867 133.808 110.435 133.44C110.259 133.296 110.147 133.024 110.147 132.768C110.147 132.272 110.355 132 111.011 131.68ZM123.878 132V127.44C123.878 126.272 123.798 125.68 123.59 125.28C123.142 124.416 122.31 123.904 121.318 123.904C120.23 123.904 119.606 124.32 118.79 125.568V124.112H117.654V132H118.886V127.664C118.886 126.112 119.814 124.96 121.094 124.96C122.15 124.96 122.726 125.648 122.726 126.928V132H123.878ZM136.902 132V127.104C136.902 125.968 136.822 125.488 136.534 125.024C136.118 124.336 135.35 123.904 134.518 123.904C133.43 123.904 132.55 124.56 132.022 125.792C131.718 124.592 130.918 123.904 129.814 123.904C128.774 123.904 127.942 124.496 127.382 125.632V124.112H126.326V132H127.494V127.28C127.494 125.952 128.342 124.912 129.43 124.912C129.878 124.912 130.31 125.12 130.614 125.488C130.87 125.808 130.982 126.192 130.982 126.816V132H132.166V127.552C132.166 126.672 132.326 126.16 132.774 125.648C133.174 125.216 133.686 124.96 134.182 124.96C134.678 124.96 135.19 125.232 135.446 125.664C135.654 126.016 135.702 126.24 135.702 127.104V132H136.902ZM144.557 129.648C144.381 130.064 144.253 130.288 144.077 130.48C143.677 130.944 143.069 131.2 142.429 131.2C141.581 131.2 140.765 130.72 140.413 130C140.173 129.504 140.093 129.088 140.093 128.16H145.837C145.821 127.072 145.693 126.416 145.373 125.728C144.813 124.576 143.725 123.904 142.397 123.904C140.237 123.904 138.733 125.616 138.733 128.096C138.733 130.56 140.189 132.208 142.349 132.208C143.949 132.208 145.181 131.344 145.693 129.888L144.557 129.648ZM140.157 127.248C140.237 126.496 140.365 126.112 140.717 125.664C141.149 125.136 141.725 124.848 142.413 124.848C143.117 124.848 143.645 125.12 144.045 125.68C144.365 126.144 144.477 126.512 144.493 127.248H140.157ZM153.894 132V127.44C153.894 126.272 153.814 125.68 153.606 125.28C153.158 124.416 152.326 123.904 151.334 123.904C150.246 123.904 149.622 124.32 148.806 125.568V124.112H147.67V132H148.902V127.664C148.902 126.112 149.83 124.96 151.11 124.96C152.166 124.96 152.742 125.648 152.742 126.928V132H153.894ZM159.909 131.152C159.477 131.232 159.253 131.248 158.965 131.248C158.117 131.248 157.685 130.832 157.685 130.016V125.072H159.461V124.112H157.685V122.032L156.533 122.128L156.485 124.112H155.093V125.072H156.485V129.824C156.485 131.408 157.253 132.224 158.741 132.224C159.109 132.224 159.365 132.208 159.909 132.128V131.152ZM172.975 131.008H169.983V121.12H169.023C168.191 122.176 167.183 122.992 165.775 123.728V125.072C166.863 124.464 167.695 123.808 168.703 122.768V131.008H165.503V132H172.975V131.008Z" fill="black"/>
<rect x="52.5" y="198.5" width="12" height="12" rx="3.5" stroke="#BC7F6A"/>
<path d="M89.224 208.832H83.656V204.992H87.96V203.904H83.656V200.496H89.08V199.328H82.328V210H89.224V208.832ZM90.0194 207.952C90.2114 208.64 90.4194 208.976 90.8354 209.328C91.5074 209.92 92.4034 210.208 93.5234 210.208C95.4754 210.208 96.7714 209.232 96.7714 207.792C96.7714 206.512 95.9874 205.744 94.3714 205.456L92.8194 205.184C91.9874 205.024 91.5874 204.672 91.5874 204.08C91.5874 203.376 92.2594 202.912 93.2834 202.912C94.2914 202.912 94.9314 203.296 95.2994 204.144L96.4194 203.904C96.0354 202.592 94.9634 201.904 93.3154 201.904C91.5234 201.904 90.3394 202.832 90.3394 204.224C90.3394 205.344 91.1234 206.144 92.4674 206.4L94.1314 206.704C95.0274 206.88 95.4914 207.28 95.4914 207.92C95.4914 208.688 94.7394 209.2 93.6354 209.2C92.8994 209.2 92.1474 208.976 91.6994 208.608C91.4434 208.4 91.3154 208.16 91.1874 207.712L90.0194 207.952ZM97.6913 207.952C97.8833 208.64 98.0913 208.976 98.5073 209.328C99.1793 209.92 100.075 210.208 101.195 210.208C103.147 210.208 104.443 209.232 104.443 207.792C104.443 206.512 103.659 205.744 102.043 205.456L100.491 205.184C99.6593 205.024 99.2593 204.672 99.2593 204.08C99.2593 203.376 99.9313 202.912 100.955 202.912C101.963 202.912 102.603 203.296 102.971 204.144L104.091 203.904C103.707 202.592 102.635 201.904 100.987 201.904C99.1953 201.904 98.0113 202.832 98.0113 204.224C98.0113 205.344 98.7953 206.144 100.139 206.4L101.803 206.704C102.699 206.88 103.163 207.28 103.163 207.92C103.163 208.688 102.411 209.2 101.307 209.2C100.571 209.2 99.8193 208.976 99.3713 208.608C99.1153 208.4 98.9873 208.16 98.8593 207.712L97.6913 207.952ZM112.439 210C112.311 209.52 112.263 209.04 112.263 208.464V205.12C112.263 203.968 112.119 203.344 111.735 202.816C111.271 202.192 110.471 201.888 109.287 201.888C107.975 201.888 106.983 202.208 106.359 202.848C106.023 203.184 105.879 203.488 105.767 204.08L106.903 204.272C107.111 203.328 107.831 202.832 109.015 202.832C110.519 202.832 111.079 203.376 111.079 204.864V205.12C110.583 205.088 110.343 205.088 110.055 205.088C108.679 205.088 107.607 205.28 106.887 205.664C106.071 206.08 105.559 206.928 105.559 207.824C105.559 209.232 106.679 210.208 108.311 210.208C109.655 210.208 110.439 209.744 111.079 208.576C111.143 209.472 111.143 209.616 111.223 210H112.439ZM111.079 206.048C111.095 206.256 111.095 206.416 111.095 206.56C111.095 208.08 109.991 209.264 108.551 209.264C107.527 209.264 106.871 208.704 106.871 207.856C106.871 206.656 107.991 206.016 110.039 206.016C110.231 206.016 110.647 206.032 111.079 206.048ZM119.781 202.112H118.741L116.581 208.048L114.469 202.112H113.221L115.957 209.856C115.733 210.56 115.589 210.896 115.429 211.152C115.141 211.616 114.741 211.824 114.181 211.824C113.941 211.824 113.749 211.792 113.365 211.712V212.688C113.781 212.784 113.973 212.816 114.293 212.816C114.853 212.816 115.237 212.72 115.525 212.512C116.005 212.176 116.341 211.68 116.613 210.928L119.781 202.112Z" fill="black"/>
<rect x="52.5" y="237.5" width="12" height="12" rx="3.5" stroke="#BC7F6A"/>
<path d="M90.008 249L87.912 244.056C88.536 243.832 88.84 243.656 89.16 243.288C89.608 242.792 89.896 242.024 89.896 241.32C89.896 239.544 88.52 238.328 86.52 238.328H82.328V249H83.576V244.376H86.632L88.6 249H90.008ZM83.576 243.288V239.496H86.52C87.784 239.496 88.568 240.184 88.568 241.288C88.568 241.832 88.376 242.328 88.024 242.696C87.624 243.112 87.128 243.288 86.36 243.288H83.576ZM96.9945 246.648C96.8185 247.064 96.6905 247.288 96.5145 247.48C96.1145 247.944 95.5065 248.2 94.8665 248.2C94.0185 248.2 93.2025 247.72 92.8505 247C92.6105 246.504 92.5305 246.088 92.5305 245.16H98.2745C98.2585 244.072 98.1305 243.416 97.8105 242.728C97.2505 241.576 96.1625 240.904 94.8345 240.904C92.6745 240.904 91.1705 242.616 91.1705 245.096C91.1705 247.56 92.6265 249.208 94.7865 249.208C96.3865 249.208 97.6185 248.344 98.1305 246.888L96.9945 246.648ZM92.5945 244.248C92.6745 243.496 92.8025 243.112 93.1545 242.664C93.5865 242.136 94.1625 241.848 94.8505 241.848C95.5545 241.848 96.0825 242.12 96.4825 242.68C96.8025 243.144 96.9145 243.512 96.9305 244.248H92.5945ZM106.236 249C106.108 248.52 106.06 248.04 106.06 247.464V244.12C106.06 242.968 105.916 242.344 105.532 241.816C105.068 241.192 104.268 240.888 103.084 240.888C101.772 240.888 100.78 241.208 100.156 241.848C99.8201 242.184 99.6761 242.488 99.5641 243.08L100.7 243.272C100.908 242.328 101.628 241.832 102.812 241.832C104.316 241.832 104.876 242.376 104.876 243.864V244.12C104.38 244.088 104.14 244.088 103.852 244.088C102.476 244.088 101.404 244.28 100.684 244.664C99.8681 245.08 99.3561 245.928 99.3561 246.824C99.3561 248.232 100.476 249.208 102.108 249.208C103.452 249.208 104.236 248.744 104.876 247.576C104.94 248.472 104.94 248.616 105.02 249H106.236ZM104.876 245.048C104.892 245.256 104.892 245.416 104.892 245.56C104.892 247.08 103.788 248.264 102.348 248.264C101.324 248.264 100.668 247.704 100.668 246.856C100.668 245.656 101.788 245.016 103.836 245.016C104.028 245.016 104.444 245.032 104.876 245.048ZM114.673 238.328H113.441V242.184C112.737 241.256 112.113 240.904 111.121 240.904C109.217 240.904 107.889 242.632 107.889 245.128C107.889 247.528 109.201 249.224 111.057 249.224C112.193 249.224 112.897 248.776 113.553 247.656V249H114.673V238.328ZM113.441 245.8C113.377 246.584 113.249 246.952 112.865 247.416C112.433 247.912 111.857 248.216 111.265 248.216C109.985 248.216 109.233 247.016 109.233 244.968C109.233 243.096 110.049 241.88 111.313 241.88C111.937 241.88 112.609 242.2 112.977 242.696C113.281 243.08 113.377 243.416 113.441 244.152V245.8ZM118.354 241.112H117.122V249H118.354V241.112ZM118.402 238.328H117.074V239.688H118.402V238.328ZM127.019 249V244.44C127.019 243.272 126.939 242.68 126.731 242.28C126.283 241.416 125.451 240.904 124.459 240.904C123.371 240.904 122.747 241.32 121.931 242.568V241.112H120.795V249H122.027V244.664C122.027 243.112 122.955 241.96 124.235 241.96C125.291 241.96 125.867 242.648 125.867 243.928V249H127.019ZM135.742 239.88C135.582 239.864 135.518 239.864 135.422 239.864C134.686 239.864 134.366 239.944 134.094 240.216C133.822 240.472 133.678 240.776 133.598 241.24C133.086 240.984 132.574 240.872 131.982 240.872C130.254 240.872 128.974 242.024 128.974 243.56C128.974 244.424 129.262 245.016 129.998 245.656C129.198 246.04 128.91 246.408 128.91 247.048C128.91 247.592 129.102 247.912 129.678 248.328C128.846 248.648 128.478 249.128 128.478 249.896C128.478 251.256 129.726 251.976 132.078 251.976C134.702 251.976 136.046 251.208 136.046 249.72C136.046 249.064 135.742 248.504 135.182 248.152C134.686 247.816 134.158 247.736 132.526 247.688C131.07 247.64 130.75 247.608 130.478 247.48C130.206 247.352 130.078 247.16 130.078 246.904C130.078 246.52 130.494 246.152 130.91 246.152C130.974 246.152 131.166 246.184 131.422 246.232C131.582 246.264 131.758 246.28 131.966 246.28C133.726 246.28 134.99 245.192 134.99 243.656C134.99 242.968 134.734 242.328 134.238 241.752C134.35 241.048 134.686 240.84 135.742 240.856V239.88ZM132.014 241.848C133.022 241.848 133.758 242.616 133.758 243.64C133.758 244.632 133.022 245.336 131.998 245.336C130.942 245.336 130.238 244.648 130.238 243.608C130.238 242.568 130.974 241.848 132.014 241.848ZM130.526 248.68C130.894 248.728 131.63 248.776 132.43 248.792C133.806 248.824 133.95 248.84 134.334 249.016C134.702 249.176 134.878 249.416 134.878 249.768C134.878 250.216 134.59 250.568 134.046 250.744C133.502 250.92 132.814 251.032 132.174 251.032C131.246 251.032 130.382 250.808 129.95 250.44C129.774 250.296 129.662 250.024 129.662 249.768C129.662 249.272 129.87 249 130.526 248.68Z" fill="black"/>
<g filter="url(#filter1_i_15_150)">
<circle cx="254.5" cy="447.5" r="21.5" fill="#BC7F6A"/>
</g>
<path d="M263.288 445.924C263.288 445.744 263.144 445.6 262.964 445.6H256.916V438.724C256.916 438.544 256.772 438.4 256.592 438.4H253.1C252.92 438.4 252.776 438.544 252.776 438.724V445.6H246.692C246.512 445.6 246.368 445.744 246.368 445.924V449.272C246.368 449.452 246.512 449.596 246.692 449.596H252.776V456.436C252.776 456.616 252.92 456.76 253.1 456.76H256.592C256.772 456.76 256.916 456.616 256.916 456.436V449.596H262.964C263.144 449.596 263.288 449.452 263.288 449.272V445.924Z" fill="#F5F0E9"/>
<defs>
<filter id="filter0_i_15_150" x="0" y="0" width="314" height="504" filterUnits="userSpaceOnUse" color-interpolation-filters="sRGB">
<feFlood flood-opacity="0" result="BackgroundImageFix"/>
<feBlend mode="normal" in="SourceGraphic" in2="BackgroundImageFix" result="shape"/>
<feColorMatrix in="SourceAlpha" type="matrix" values="0 0 0 0 0 0 0 0 0 0 0 0 0 0 0 0 0 0 127 0" result="hardAlpha"/>
<feOffset dx="7" dy="7"/>
<feGaussianBlur stdDeviation="2"/>
<feComposite in2="hardAlpha" operator="arithmetic" k2="-1" k3="1"/>
<feColorMatrix type="matrix" values="0 0 0 0 1 0 0 0 0 1 0 0 0 0 1 0 0 0 0.5 0"/>
<feBlend mode="normal" in2="shape" result="effect1_innerShadow_15_150"/>
</filter>
<filter id="filter1_i_15_150" x="233" y="426" width="45" height="45" filterUnits="userSpaceOnUse" color-interpolation-filters="sRGB">
<feFlood flood-opacity="0" result="BackgroundImageFix"/>
<feBlend mode="normal" in="SourceGraphic" in2="BackgroundImageFix" result="shape"/>
<feColorMatrix in="SourceAlpha" type="matrix" values="0 0 0 0 0 0 0 0 0 0 0 0 0 0 0 0 0 0 127 0" result="hardAlpha"/>
<feOffset dx="2" dy="2"/>
<feGaussianBlur stdDeviation="2"/>
<feComposite in2="hardAlpha" operator="arithmetic" k2="-1" k3="1"/>
<feColorMatrix type="matrix" values="0 0 0 0 1 0 0 0 0 1 0 0 0 0 1 0 0 0 0.3 0"/>
<feBlend mode="normal" in2="shape" result="effect1_innerShadow_15_150"/>
</filter>
</defs>
</svg>
