<svg width="502" height="280" viewBox="0 0 502 280" fill="none" xmlns="http://www.w3.org/2000/svg">
<g filter="url(#filter0_i_15_107)">
<rect x="502" width="280" height="502" rx="20" transform="rotate(90 502 0)" fill="#F5F0E9"/>
</g>
<g filter="url(#filter1_d_15_107)">
<path d="M112.3 130.2C112.3 105.6 101.2 93.5 84.4 93.5C67.5 93.5 56.6 105.9 56.6 130.2C56.6 153.6 67.6 166.5 84.4 166.5C101.3 166.5 112.3 153.6 112.3 130.2ZM72.3 130.2C72.3 112.5 76.4 105.2 84.4 105.2C92.3 105.2 96.6 112.8 96.6 130.2C96.6 147.6 92.3 154.8 84.5 154.8C76.7 154.8 72.3 147.5 72.3 130.2ZM171.187 130.2C171.187 105.6 160.087 93.5 143.287 93.5C126.387 93.5 115.487 105.9 115.487 130.2C115.487 153.6 126.487 166.5 143.287 166.5C160.187 166.5 171.187 153.6 171.187 130.2ZM131.187 130.2C131.187 112.5 135.287 105.2 143.287 105.2C151.187 105.2 155.487 112.8 155.487 130.2C155.487 147.6 151.187 154.8 143.387 154.8C135.587 154.8 131.187 147.5 131.187 130.2ZM189.073 127.8C189.573 127.8 189.973 127.4 189.973 126.9V114.4C189.973 113.9 189.573 113.5 189.073 113.5H175.273C174.773 113.5 174.373 113.9 174.373 114.4V126.9C174.373 127.4 174.773 127.8 175.273 127.8H189.073ZM189.073 165C189.573 165 189.973 164.6 189.973 164.1V151.6C189.973 151.1 189.573 150.7 189.073 150.7H175.273C174.773 150.7 174.373 151.1 174.373 151.6V164.1C174.373 164.6 174.773 165 175.273 165H189.073ZM249.116 130.2C249.116 105.6 238.016 93.5 221.216 93.5C204.316 93.5 193.416 105.9 193.416 130.2C193.416 153.6 204.416 166.5 221.216 166.5C238.116 166.5 249.116 153.6 249.116 130.2ZM209.116 130.2C209.116 112.5 213.216 105.2 221.216 105.2C229.116 105.2 233.416 112.8 233.416 130.2C233.416 147.6 229.116 154.8 221.316 154.8C213.516 154.8 209.116 147.5 209.116 130.2ZM308.003 130.2C308.003 105.6 296.903 93.5 280.103 93.5C263.203 93.5 252.303 105.9 252.303 130.2C252.303 153.6 263.303 166.5 280.103 166.5C297.003 166.5 308.003 153.6 308.003 130.2ZM268.003 130.2C268.003 112.5 272.103 105.2 280.103 105.2C288.003 105.2 292.303 112.8 292.303 130.2C292.303 147.6 288.003 154.8 280.203 154.8C272.403 154.8 268.003 147.5 268.003 130.2ZM325.89 127.8C326.39 127.8 326.79 127.4 326.79 126.9V114.4C326.79 113.9 326.39 113.5 325.89 113.5H312.09C311.59 113.5 311.19 113.9 311.19 114.4V126.9C311.19 127.4 311.59 127.8 312.09 127.8H325.89ZM325.89 165C326.39 165 326.79 164.6 326.79 164.1V151.6C326.79 151.1 326.39 150.7 325.89 150.7H312.09C311.59 150.7 311.19 151.1 311.19 151.6V164.1C311.19 164.6 311.59 165 312.09 165H325.89ZM385.933 130.2C385.933 105.6 374.833 93.5 358.033 93.5C341.133 93.5 330.233 105.9 330.233 130.2C330.233 153.6 341.233 166.5 358.033 166.5C374.933 166.5 385.933 153.6 385.933 130.2ZM345.933 130.2C345.933 112.5 350.033 105.2 358.033 105.2C365.933 105.2 370.233 112.8 370.233 130.2C370.233 147.6 365.933 154.8 358.133 154.8C350.333 154.8 345.933 147.5 345.933 130.2ZM444.82 130.2C444.82 105.6 433.72 93.5 416.92 93.5C400.02 93.5 389.12 105.9 389.12 130.2C389.12 153.6 400.12 166.5 416.92 166.5C433.82 166.5 444.82 153.6 444.82 130.2ZM404.82 130.2C404.82 112.5 408.92 105.2 416.92 105.2C424.82 105.2 429.12 112.8 429.12 130.2C429.12 147.6 424.82 154.8 417.02 154.8C409.22 154.8 404.82 147.5 404.82 130.2Z" fill="#BC7F6A"/>
</g>
<g filter="url(#filter2_i_15_107)">
<rect x="155.113" y="28" width="35" height="60" rx="8" transform="rotate(90 155.113 28)" fill="#DECFC1"/>
</g>
<path d="M113.128 45.744C113.128 45.664 113.064 45.6 112.984 45.6H110.296V42.544C110.296 42.464 110.232 42.4 110.152 42.4H108.6C108.52 42.4 108.456 42.464 108.456 42.544V45.6H105.752C105.672 45.6 105.608 45.664 105.608 45.744V47.232C105.608 47.312 105.672 47.376 105.752 47.376H108.456V50.416C108.456 50.496 108.52 50.56 108.6 50.56H110.152C110.232 50.56 110.296 50.496 110.296 50.416V47.376H112.984C113.064 47.376 113.128 47.312 113.128 47.232V45.744ZM122.11 47.952C122.11 45.632 120.51 44.048 118.51 44.048C117.678 44.048 116.878 44.272 116.318 44.832L116.558 42.608H121.278C121.358 42.608 121.422 42.544 121.422 42.464V40.944C121.422 40.864 121.358 40.8 121.278 40.8H114.558C114.478 40.8 114.414 40.864 114.398 40.944L113.982 46.912C113.966 46.992 114.03 47.056 114.11 47.056H115.934C116.014 47.056 116.094 47.008 116.11 46.912C116.302 46.16 116.894 45.744 117.742 45.744C119.006 45.744 119.534 46.592 119.534 48.128C119.534 49.76 118.862 50.592 117.71 50.592C116.83 50.592 116.222 50.096 116.158 49.152C116.158 49.072 116.094 49.008 116.014 49.008H113.886C113.806 49.008 113.742 49.072 113.758 49.152C113.95 50.976 115.31 52.256 117.726 52.256C120.334 52.256 122.11 50.608 122.11 47.952ZM124.905 46.048C124.985 46.048 125.049 45.984 125.049 45.904V43.904C125.049 43.824 124.985 43.76 124.905 43.76H122.697C122.617 43.76 122.553 43.824 122.553 43.904V45.904C122.553 45.984 122.617 46.048 122.697 46.048H124.905ZM124.905 52C124.985 52 125.049 51.936 125.049 51.856V49.856C125.049 49.776 124.985 49.712 124.905 49.712H122.697C122.617 49.712 122.553 49.776 122.553 49.856V51.856C122.553 51.936 122.617 52 122.697 52H124.905ZM134.512 46.432C134.512 42.496 132.736 40.56 130.048 40.56C127.344 40.56 125.6 42.544 125.6 46.432C125.6 50.176 127.36 52.24 130.048 52.24C132.752 52.24 134.512 50.176 134.512 46.432ZM128.112 46.432C128.112 43.6 128.768 42.432 130.048 42.432C131.312 42.432 132 43.648 132 46.432C132 49.216 131.312 50.368 130.064 50.368C128.816 50.368 128.112 49.2 128.112 46.432ZM143.934 46.432C143.934 42.496 142.158 40.56 139.47 40.56C136.766 40.56 135.022 42.544 135.022 46.432C135.022 50.176 136.782 52.24 139.47 52.24C142.174 52.24 143.934 50.176 143.934 46.432ZM137.534 46.432C137.534 43.6 138.19 42.432 139.47 42.432C140.734 42.432 141.422 43.648 141.422 46.432C141.422 49.216 140.734 50.368 139.486 50.368C138.238 50.368 137.534 49.2 137.534 46.432Z" fill="#BC7F6A"/>
<g filter="url(#filter3_i_15_107)">
<rect x="239.408" y="28" width="35" height="60" rx="8" transform="rotate(90 239.408 28)" fill="#DECFC1"/>
</g>
<path d="M194.128 45.744C194.128 45.664 194.064 45.6 193.984 45.6H191.296V42.544C191.296 42.464 191.232 42.4 191.152 42.4H189.6C189.52 42.4 189.456 42.464 189.456 42.544V45.6H186.752C186.672 45.6 186.608 45.664 186.608 45.744V47.232C186.608 47.312 186.672 47.376 186.752 47.376H189.456V50.416C189.456 50.496 189.52 50.56 189.6 50.56H191.152C191.232 50.56 191.296 50.496 191.296 50.416V47.376H193.984C194.064 47.376 194.128 47.312 194.128 47.232V45.744ZM198.333 52C198.413 52 198.477 51.936 198.477 51.856L198.429 46.544L198.477 40.944C198.477 40.864 198.413 40.8 198.333 40.8H196.317C196.237 40.8 196.141 40.848 196.109 40.928C195.629 41.824 194.845 42.48 193.773 42.864C193.677 42.896 193.629 42.976 193.629 43.056V44.624C193.629 44.704 193.693 44.752 193.773 44.72C194.653 44.448 195.421 44.048 196.013 43.488L196.029 47.376L195.997 51.856C195.997 51.936 196.061 52 196.141 52H198.333ZM208.308 46.432C208.308 42.496 206.532 40.56 203.844 40.56C201.14 40.56 199.396 42.544 199.396 46.432C199.396 50.176 201.156 52.24 203.844 52.24C206.548 52.24 208.308 50.176 208.308 46.432ZM201.908 46.432C201.908 43.6 202.564 42.432 203.844 42.432C205.108 42.432 205.796 43.648 205.796 46.432C205.796 49.216 205.108 50.368 203.86 50.368C202.612 50.368 201.908 49.2 201.908 46.432ZM211.17 46.048C211.25 46.048 211.314 45.984 211.314 45.904V43.904C211.314 43.824 211.25 43.76 211.17 43.76H208.962C208.882 43.76 208.818 43.824 208.818 43.904V45.904C208.818 45.984 208.882 46.048 208.962 46.048H211.17ZM211.17 52C211.25 52 211.314 51.936 211.314 51.856V49.856C211.314 49.776 211.25 49.712 211.17 49.712H208.962C208.882 49.712 208.818 49.776 208.818 49.856V51.856C208.818 51.936 208.882 52 208.962 52H211.17ZM220.777 46.432C220.777 42.496 219.001 40.56 216.313 40.56C213.609 40.56 211.865 42.544 211.865 46.432C211.865 50.176 213.625 52.24 216.313 52.24C219.017 52.24 220.777 50.176 220.777 46.432ZM214.377 46.432C214.377 43.6 215.033 42.432 216.313 42.432C217.577 42.432 218.265 43.648 218.265 46.432C218.265 49.216 217.577 50.368 216.329 50.368C215.081 50.368 214.377 49.2 214.377 46.432ZM230.199 46.432C230.199 42.496 228.423 40.56 225.735 40.56C223.031 40.56 221.287 42.544 221.287 46.432C221.287 50.176 223.047 52.24 225.735 52.24C228.439 52.24 230.199 50.176 230.199 46.432ZM223.799 46.432C223.799 43.6 224.455 42.432 225.735 42.432C226.999 42.432 227.687 43.648 227.687 46.432C227.687 49.216 226.999 50.368 225.751 50.368C224.503 50.368 223.799 49.2 223.799 46.432Z" fill="#BC7F6A"/>
<g filter="url(#filter4_i_15_107)">
<rect x="323.704" y="28" width="35" height="60" rx="8" transform="rotate(90 323.704 28)" fill="#DECFC1"/>
</g>
<path d="M280.128 45.744C280.128 45.664 280.064 45.6 279.984 45.6H277.296V42.544C277.296 42.464 277.232 42.4 277.152 42.4H275.6C275.52 42.4 275.456 42.464 275.456 42.544V45.6H272.752C272.672 45.6 272.608 45.664 272.608 45.744V47.232C272.608 47.312 272.672 47.376 272.752 47.376H275.456V50.416C275.456 50.496 275.52 50.56 275.6 50.56H277.152C277.232 50.56 277.296 50.496 277.296 50.416V47.376H279.984C280.064 47.376 280.128 47.312 280.128 47.232V45.744ZM284.334 52C284.414 52 284.478 51.936 284.478 51.856L284.43 46.544L284.478 40.944C284.478 40.864 284.414 40.8 284.334 40.8H282.318C282.238 40.8 282.142 40.848 282.11 40.928C281.63 41.824 280.846 42.48 279.774 42.864C279.678 42.896 279.63 42.976 279.63 43.056V44.624C279.63 44.704 279.694 44.752 279.774 44.72C280.654 44.448 281.422 44.048 282.014 43.488L282.03 47.376L281.998 51.856C281.998 51.936 282.062 52 282.142 52H284.334ZM293.845 47.952C293.845 45.632 292.245 44.048 290.245 44.048C289.413 44.048 288.613 44.272 288.053 44.832L288.293 42.608H293.013C293.093 42.608 293.157 42.544 293.157 42.464V40.944C293.157 40.864 293.093 40.8 293.013 40.8H286.293C286.213 40.8 286.149 40.864 286.133 40.944L285.717 46.912C285.701 46.992 285.765 47.056 285.845 47.056H287.669C287.749 47.056 287.829 47.008 287.845 46.912C288.037 46.16 288.629 45.744 289.477 45.744C290.741 45.744 291.269 46.592 291.269 48.128C291.269 49.76 290.597 50.592 289.445 50.592C288.565 50.592 287.957 50.096 287.893 49.152C287.893 49.072 287.829 49.008 287.749 49.008H285.621C285.541 49.008 285.477 49.072 285.493 49.152C285.685 50.976 287.045 52.256 289.461 52.256C292.069 52.256 293.845 50.608 293.845 47.952ZM296.639 46.048C296.719 46.048 296.783 45.984 296.783 45.904V43.904C296.783 43.824 296.719 43.76 296.639 43.76H294.431C294.351 43.76 294.287 43.824 294.287 43.904V45.904C294.287 45.984 294.351 46.048 294.431 46.048H296.639ZM296.639 52C296.719 52 296.783 51.936 296.783 51.856V49.856C296.783 49.776 296.719 49.712 296.639 49.712H294.431C294.351 49.712 294.287 49.776 294.287 49.856V51.856C294.287 51.936 294.351 52 294.431 52H296.639ZM306.246 46.432C306.246 42.496 304.47 40.56 301.782 40.56C299.078 40.56 297.334 42.544 297.334 46.432C297.334 50.176 299.094 52.24 301.782 52.24C304.486 52.24 306.246 50.176 306.246 46.432ZM299.846 46.432C299.846 43.6 300.502 42.432 301.782 42.432C303.046 42.432 303.734 43.648 303.734 46.432C303.734 49.216 303.046 50.368 301.798 50.368C300.55 50.368 299.846 49.2 299.846 46.432ZM315.668 46.432C315.668 42.496 313.892 40.56 311.204 40.56C308.5 40.56 306.756 42.544 306.756 46.432C306.756 50.176 308.516 52.24 311.204 52.24C313.908 52.24 315.668 50.176 315.668 46.432ZM309.268 46.432C309.268 43.6 309.924 42.432 311.204 42.432C312.468 42.432 313.156 43.648 313.156 46.432C313.156 49.216 312.468 50.368 311.22 50.368C309.972 50.368 309.268 49.2 309.268 46.432Z" fill="#BC7F6A"/>
<g filter="url(#filter5_i_15_107)">
<rect x="408" y="28" width="35" height="60" rx="8" transform="rotate(90 408 28)" fill="#DECFC1"/>
</g>
<path d="M362.128 45.744C362.128 45.664 362.064 45.6 361.984 45.6H359.296V42.544C359.296 42.464 359.232 42.4 359.152 42.4H357.6C357.52 42.4 357.456 42.464 357.456 42.544V45.6H354.752C354.672 45.6 354.608 45.664 354.608 45.744V47.232C354.608 47.312 354.672 47.376 354.752 47.376H357.456V50.416C357.456 50.496 357.52 50.56 357.6 50.56H359.152C359.232 50.56 359.296 50.496 359.296 50.416V47.376H361.984C362.064 47.376 362.128 47.312 362.128 47.232V45.744ZM370.29 48.56C370.29 47.2 369.522 46.288 368.162 45.936C369.218 45.584 370.002 44.864 370.002 43.52C369.986 41.776 368.514 40.64 366.338 40.64C363.89 40.64 362.45 41.808 362.306 43.936C362.29 44.016 362.354 44.08 362.434 44.08H364.466C364.546 44.08 364.61 44.016 364.626 43.936C364.706 42.816 365.234 42.272 366.21 42.272C367.01 42.272 367.618 42.896 367.618 43.76C367.618 44.656 366.962 45.28 365.49 45.28H365.154C365.074 45.28 365.01 45.344 365.01 45.424V46.688C365.01 46.768 365.074 46.832 365.154 46.832H365.49C367.154 46.832 367.842 47.36 367.81 48.64C367.778 49.824 367.106 50.528 366.13 50.528C365.058 50.544 364.514 49.84 364.45 48.624C364.45 48.544 364.386 48.48 364.306 48.48H362.242C362.162 48.48 362.098 48.544 362.114 48.624C362.29 50.928 363.602 52.16 366.066 52.16C368.338 52.16 370.29 50.864 370.29 48.56ZM379.699 46.432C379.699 42.496 377.923 40.56 375.235 40.56C372.531 40.56 370.787 42.544 370.787 46.432C370.787 50.176 372.547 52.24 375.235 52.24C377.939 52.24 379.699 50.176 379.699 46.432ZM373.299 46.432C373.299 43.6 373.955 42.432 375.235 42.432C376.499 42.432 377.187 43.648 377.187 46.432C377.187 49.216 376.499 50.368 375.251 50.368C374.003 50.368 373.299 49.2 373.299 46.432ZM382.561 46.048C382.641 46.048 382.705 45.984 382.705 45.904V43.904C382.705 43.824 382.641 43.76 382.561 43.76H380.353C380.273 43.76 380.209 43.824 380.209 43.904V45.904C380.209 45.984 380.273 46.048 380.353 46.048H382.561ZM382.561 52C382.641 52 382.705 51.936 382.705 51.856V49.856C382.705 49.776 382.641 49.712 382.561 49.712H380.353C380.273 49.712 380.209 49.776 380.209 49.856V51.856C380.209 51.936 380.273 52 380.353 52H382.561ZM392.168 46.432C392.168 42.496 390.392 40.56 387.704 40.56C385 40.56 383.256 42.544 383.256 46.432C383.256 50.176 385.016 52.24 387.704 52.24C390.408 52.24 392.168 50.176 392.168 46.432ZM385.768 46.432C385.768 43.6 386.424 42.432 387.704 42.432C388.968 42.432 389.656 43.648 389.656 46.432C389.656 49.216 388.968 50.368 387.72 50.368C386.472 50.368 385.768 49.2 385.768 46.432ZM401.59 46.432C401.59 42.496 399.814 40.56 397.126 40.56C394.422 40.56 392.678 42.544 392.678 46.432C392.678 50.176 394.438 52.24 397.126 52.24C399.83 52.24 401.59 50.176 401.59 46.432ZM395.19 46.432C395.19 43.6 395.846 42.432 397.126 42.432C398.39 42.432 399.078 43.648 399.078 46.432C399.078 49.216 398.39 50.368 397.142 50.368C395.894 50.368 395.19 49.2 395.19 46.432Z" fill="#BC7F6A"/>
<g filter="url(#filter6_i_15_107)">
<rect x="232" y="207" width="44" height="100" rx="8" transform="rotate(90 232 207)" fill="#BC7F6A"/>
</g>
<path d="M165.2 226.368C165.2 227.584 164.32 228.064 163.296 228.064H160.864L160.912 224.576H163.232C164.48 224.576 165.2 225.152 165.2 226.368ZM165.008 233.872C165.056 233.952 165.152 234 165.232 234H167.776C167.84 234 167.872 233.936 167.84 233.872L165.056 229.584C166.64 229.104 167.552 227.968 167.552 226.32C167.552 223.984 165.936 222.8 163.136 222.8H158.592C158.512 222.8 158.448 222.864 158.448 222.944L158.512 228.4L158.448 233.856C158.448 233.936 158.512 234 158.592 234H160.784C160.864 234 160.928 233.936 160.928 233.856L160.88 229.84H162.48L163.584 231.504L165.008 233.872ZM176.116 234C176.196 234 176.26 233.936 176.26 233.856V232.336C176.26 232.256 176.196 232.192 176.116 232.192H170.772L170.708 228.992H175.524C175.604 228.992 175.668 228.928 175.668 228.848V227.328C175.668 227.248 175.604 227.184 175.524 227.184H170.708L170.772 224.608H175.988C176.068 224.608 176.132 224.544 176.132 224.464V222.944C176.132 222.864 176.068 222.8 175.988 222.8H168.436C168.356 222.8 168.292 222.864 168.292 222.944L168.372 228.4L168.292 233.856C168.292 233.936 168.356 234 168.436 234H176.116ZM186.421 230.608C186.421 226.176 179.237 228.112 179.237 225.728C179.237 224.8 180.069 224.4 181.221 224.4C182.581 224.4 183.397 224.96 183.525 225.968C183.541 226.048 183.605 226.112 183.685 226.112H185.957C186.037 226.112 186.085 226.048 186.085 225.968C185.749 223.568 183.941 222.56 181.317 222.56C178.453 222.56 176.821 223.872 176.821 225.968C176.821 230.416 183.973 228.416 183.973 230.944C183.973 232 183.173 232.432 181.717 232.432C179.877 232.432 179.317 231.616 179.157 230.368C179.141 230.288 179.077 230.224 178.997 230.224H176.741C176.661 230.224 176.597 230.288 176.597 230.368C176.709 233.024 178.725 234.256 181.669 234.256C184.597 234.256 186.421 232.976 186.421 230.608ZM194.819 234C194.899 234 194.963 233.936 194.963 233.856V232.336C194.963 232.256 194.899 232.192 194.819 232.192H189.475L189.411 228.992H194.227C194.307 228.992 194.371 228.928 194.371 228.848V227.328C194.371 227.248 194.307 227.184 194.227 227.184H189.411L189.475 224.608H194.691C194.771 224.608 194.835 224.544 194.835 224.464V222.944C194.835 222.864 194.771 222.8 194.691 222.8H187.139C187.059 222.8 186.995 222.864 186.995 222.944L187.075 228.4L186.995 233.856C186.995 233.936 187.059 234 187.139 234H194.819ZM200.836 234C200.916 234 200.98 233.936 200.98 233.856L200.884 228.4L200.948 224.608H204.036C204.116 224.608 204.18 224.544 204.18 224.464V222.944C204.18 222.864 204.116 222.8 204.036 222.8H195.364C195.284 222.8 195.22 222.864 195.22 222.944V224.464C195.22 224.544 195.284 224.608 195.364 224.608H198.468L198.532 228.4L198.436 233.856C198.436 233.936 198.5 234 198.58 234H200.836Z" fill="#F5F0E9"/>
<g filter="url(#filter7_i_15_107)">
<rect x="369" y="207" width="44" height="100" rx="8" transform="rotate(90 369 207)" fill="#66756A"/>
</g>
<path d="M304.968 230.608C304.968 226.176 297.784 228.112 297.784 225.728C297.784 224.8 298.616 224.4 299.768 224.4C301.128 224.4 301.944 224.96 302.072 225.968C302.088 226.048 302.152 226.112 302.232 226.112H304.504C304.584 226.112 304.632 226.048 304.632 225.968C304.296 223.568 302.488 222.56 299.864 222.56C297 222.56 295.368 223.872 295.368 225.968C295.368 230.416 302.52 228.416 302.52 230.944C302.52 232 301.72 232.432 300.264 232.432C298.424 232.432 297.864 231.616 297.704 230.368C297.688 230.288 297.624 230.224 297.544 230.224H295.288C295.208 230.224 295.144 230.288 295.144 230.368C295.256 233.024 297.272 234.256 300.216 234.256C303.144 234.256 304.968 232.976 304.968 230.608ZM310.289 234C310.369 234 310.433 233.936 310.433 233.856L310.337 228.4L310.401 224.608H313.489C313.569 224.608 313.633 224.544 313.633 224.464V222.944C313.633 222.864 313.569 222.8 313.489 222.8H304.817C304.737 222.8 304.673 222.864 304.673 222.944V224.464C304.673 224.544 304.737 224.608 304.817 224.608H307.921L307.985 228.4L307.889 233.856C307.889 233.936 307.953 234 308.033 234H310.289ZM316.041 229.216L317.497 224.432L319.033 229.216H316.041ZM322.921 234C323.001 234 323.049 233.936 323.017 233.856L319.305 222.944C319.273 222.864 319.193 222.8 319.113 222.8H316.121C316.041 222.8 315.961 222.864 315.929 222.944L312.137 233.856C312.105 233.936 312.153 234 312.233 234H314.425C314.505 234 314.585 233.936 314.617 233.856L315.449 231.152H319.641L320.505 233.856C320.537 233.936 320.617 234 320.697 234H322.921ZM330.091 226.368C330.091 227.584 329.211 228.064 328.187 228.064H325.755L325.803 224.576H328.123C329.371 224.576 330.091 225.152 330.091 226.368ZM329.899 233.872C329.947 233.952 330.043 234 330.123 234H332.667C332.731 234 332.763 233.936 332.731 233.872L329.947 229.584C331.531 229.104 332.443 227.968 332.443 226.32C332.443 223.984 330.827 222.8 328.027 222.8H323.483C323.403 222.8 323.339 222.864 323.339 222.944L323.403 228.4L323.339 233.856C323.339 233.936 323.403 234 323.483 234H325.675C325.755 234 325.819 233.936 325.819 233.856L325.771 229.84H327.371L328.475 231.504L329.899 233.872ZM338.102 234C338.182 234 338.246 233.936 338.246 233.856L338.15 228.4L338.214 224.608H341.302C341.382 224.608 341.446 224.544 341.446 224.464V222.944C341.446 222.864 341.382 222.8 341.302 222.8H332.63C332.55 222.8 332.486 222.864 332.486 222.944V224.464C332.486 224.544 332.55 224.608 332.63 224.608H335.734L335.798 228.4L335.702 233.856C335.702 233.936 335.766 234 335.846 234H338.102Z" fill="#F5F0E9"/>
<defs>
<filter id="filter0_i_15_107" x="0" y="0" width="506" height="284" filterUnits="userSpaceOnUse" color-interpolation-filters="sRGB">
<feFlood flood-opacity="0" result="BackgroundImageFix"/>
<feBlend mode="normal" in="SourceGraphic" in2="BackgroundImageFix" result="shape"/>
<feColorMatrix in="SourceAlpha" type="matrix" values="0 0 0 0 0 0 0 0 0 0 0 0 0 0 0 0 0 0 127 0" result="hardAlpha"/>
<feOffset dx="7" dy="7"/>
<feGaussianBlur stdDeviation="2"/>
<feComposite in2="hardAlpha" operator="arithmetic" k2="-1" k3="1"/>
<feColorMatrix type="matrix" values="0 0 0 0 1 0 0 0 0 1 0 0 0 0 1 0 0 0 0.5 0"/>
<feBlend mode="normal" in2="shape" result="effect1_innerShadow_15_107"/>
</filter>
<filter id="filter1_d_15_107" x="52.6" y="93.5" width="396.22" height="81" filterUnits="userSpaceOnUse" color-interpolation-filters="sRGB">
<feFlood flood-opacity="0" result="BackgroundImageFix"/>
<feColorMatrix in="SourceAlpha" type="matrix" values="0 0 0 0 0 0 0 0 0 0 0 0 0 0 0 0 0 0 127 0" result="hardAlpha"/>
<feOffset dy="4"/>
<feGaussianBlur stdDeviation="2"/>
<feComposite in2="hardAlpha" operator="out"/>
<feColorMatrix type="matrix" values="0 0 0 0 0 0 0 0 0 0 0 0 0 0 0 0 0 0 0.25 0"/>
<feBlend mode="normal" in2="BackgroundImageFix" result="effect1_dropShadow_15_107"/>
<feBlend mode="normal" in="SourceGraphic" in2="effect1_dropShadow_15_107" result="shape"/>
</filter>
<filter id="filter2_i_15_107" x="95.1125" y="28" width="62" height="37" filterUnits="userSpaceOnUse" color-interpolation-filters="sRGB">
<feFlood flood-opacity="0" result="BackgroundImageFix"/>
<feBlend mode="normal" in="SourceGraphic" in2="BackgroundImageFix" result="shape"/>
<feColorMatrix in="SourceAlpha" type="matrix" values="0 0 0 0 0 0 0 0 0 0 0 0 0 0 0 0 0 0 127 0" result="hardAlpha"/>
<feOffset dx="2" dy="2"/>
<feGaussianBlur stdDeviation="1"/>
<feComposite in2="hardAlpha" operator="arithmetic" k2="-1" k3="1"/>
<feColorMatrix type="matrix" values="0 0 0 0 1 0 0 0 0 1 0 0 0 0 1 0 0 0 0.5 0"/>
<feBlend mode="normal" in2="shape" result="effect1_innerShadow_15_107"/>
</filter>
<filter id="filter3_i_15_107" x="179.408" y="28" width="62" height="37" filterUnits="userSpaceOnUse" color-interpolation-filters="sRGB">
<feFlood flood-opacity="0" result="BackgroundImageFix"/>
<feBlend mode="normal" in="SourceGraphic" in2="BackgroundImageFix" result="shape"/>
<feColorMatrix in="SourceAlpha" type="matrix" values="0 0 0 0 0 0 0 0 0 0 0 0 0 0 0 0 0 0 127 0" result="hardAlpha"/>
<feOffset dx="2" dy="2"/>
<feGaussianBlur stdDeviation="1"/>
<feComposite in2="hardAlpha" operator="arithmetic" k2="-1" k3="1"/>
<feColorMatrix type="matrix" values="0 0 0 0 1 0 0 0 0 1 0 0 0 0 1 0 0 0 0.5 0"/>
<feBlend mode="normal" in2="shape" result="effect1_innerShadow_15_107"/>
</filter>
<filter id="filter4_i_15_107" x="263.704" y="28" width="62" height="37" filterUnits="userSpaceOnUse" color-interpolation-filters="sRGB">
<feFlood flood-opacity="0" result="BackgroundImageFix"/>
<feBlend mode="normal" in="SourceGraphic" in2="BackgroundImageFix" result="shape"/>
<feColorMatrix in="SourceAlpha" type="matrix" values="0 0 0 0 0 0 0 0 0 0 0 0 0 0 0 0 0 0 127 0" result="hardAlpha"/>
<feOffset dx="2" dy="2"/>
<feGaussianBlur stdDeviation="1"/>
<feComposite in2="hardAlpha" operator="arithmetic" k2="-1" k3="1"/>
<feColorMatrix type="matrix" values="0 0 0 0 1 0 0 0 0 1 0 0 0 0 1 0 0 0 0.5 0"/>
<feBlend mode="normal" in2="shape" result="effect1_innerShadow_15_107"/>
</filter>
<filter id="filter5_i_15_107" x="348" y="28" width="62" height="37" filterUnits="userSpaceOnUse" color-interpolation-filters="sRGB">
<feFlood flood-opacity="0" result="BackgroundImageFix"/>
<feBlend mode="normal" in="SourceGraphic" in2="BackgroundImageFix" result="shape"/>
<feColorMatrix in="SourceAlpha" type="matrix" values="0 0 0 0 0 0 0 0 0 0 0 0 0 0 0 0 0 0 127 0" result="hardAlpha"/>
<feOffset dx="2" dy="2"/>
<feGaussianBlur stdDeviation="1"/>
<feComposite in2="hardAlpha" operator="arithmetic" k2="-1" k3="1"/>
<feColorMatrix type="matrix" values="0 0 0 0 1 0 0 0 0 1 0 0 0 0 1 0 0 0 0.5 0"/>
<feBlend mode="normal" in2="shape" result="effect1_innerShadow_15_107"/>
</filter>
<filter id="filter6_i_15_107" x="132" y="207" width="102" height="46" filterUnits="userSpaceOnUse" color-interpolation-filters="sRGB">
<feFlood flood-opacity="0" result="BackgroundImageFix"/>
<feBlend mode="normal" in="SourceGraphic" in2="BackgroundImageFix" result="shape"/>
<feColorMatrix in="SourceAlpha" type="matrix" values="0 0 0 0 0 0 0 0 0 0 0 0 0 0 0 0 0 0 127 0" result="hardAlpha"/>
<feOffset dx="2" dy="2"/>
<feGaussianBlur stdDeviation="2"/>
<feComposite in2="hardAlpha" operator="arithmetic" k2="-1" k3="1"/>
<feColorMatrix type="matrix" values="0 0 0 0 1 0 0 0 0 1 0 0 0 0 1 0 0 0 0.5 0"/>
<feBlend mode="normal" in2="shape" result="effect1_innerShadow_15_107"/>
</filter>
<filter id="filter7_i_15_107" x="269" y="207" width="102" height="46" filterUnits="userSpaceOnUse" color-interpolation-filters="sRGB">
<feFlood flood-opacity="0" result="BackgroundImageFix"/>
<feBlend mode="normal" in="SourceGraphic" in2="BackgroundImageFix" result="shape"/>
<feColorMatrix in="SourceAlpha" type="matrix" values="0 0 0 0 0 0 0 0 0 0 0 0 0 0 0 0 0 0 127 0" result="hardAlpha"/>
<feOffset dx="2" dy="2"/>
<feGaussianBlur stdDeviation="2"/>
<feComposite in2="hardAlpha" operator="arithmetic" k2="-1" k3="1"/>
<feColorMatrix type="matrix" values="0 0 0 0 1 0 0 0 0 1 0 0 0 0 1 0 0 0 0.5 0"/>
<feBlend mode="normal" in2="shape" result="effect1_innerShadow_15_107"/>
</filter>
</defs>
</svg>
